<svg width="200" height="200" viewBox="0 0 200 200" fill="none" xmlns="http://www.w3.org/2000/svg">
  <defs>
    <linearGradient id="brand-gradient" x1="0%" y1="0%" x2="100%" y2="100%">
      <stop offset="0%" style="stop-color:hsl(262, 80%, 58%);stop-opacity:1" />
      <stop offset="100%" style="stop-color:hsl(300, 85%, 60%);stop-opacity:1" />
    </linearGradient>
  </defs>
  <path
    d="M100 0C44.77 0 0 44.77 0 100C0 155.23 44.77 200 100 200C155.23 200 200 155.23 200 100C200 44.77 155.23 0 100 0ZM155.6 138.8C154.4 140.6 152.2 141.2 150.4 140.2L124.6 125.4C122.8 124.4 122.2 122.2 123.2 120.4C124.2 118.6 126.4 118 128.2 119L154 133.8C155.8 134.8 156.4 137 155.6 138.8ZM164.6 114.6C163.4 116.4 161.2 117 159.4 116L115.8 91.6C114 90.6 113.4 88.4 114.4 86.6C115.4 84.8 117.6 84.2 119.4 85.2L163 110C164.8 111 165.4 113.2 164.6 114.6ZM133.6 58.6C132.6 60.4 130.4 61 128.6 60L46.6 29.2C44.8 28.2 44.2 26 45.2 24.2C46.2 22.4 48.4 21.8 50.2 22.8L132.2 53.6C134 54.6 134.6 56.8 133.6 58.6Z"
    fill="url(#brand-gradient)"
  />
</svg>
