<svg width="659" height="764" viewBox="0 0 659 764" fill="none" xmlns="http://www.w3.org/2000/svg">
<path d="M150.67 762.977C123.153 758.229 100.827 750.457 74.7539 736.551C60.8082 729.114 54.0708 724.27 45.1557 715.271C28.7907 698.752 23.6242 680.979 29.2873 660.681C31.1918 653.855 36.6574 643.624 41.5754 637.681C43.6234 635.206 45.6474 632.597 46.0731 631.884C46.5704 631.05 44.7197 627.833 40.8947 622.884C17.2731 592.316 3.91112 557.424 0.525566 517.466C-1.89303 488.921 3.96167 454.913 19.6314 406.487C25.8515 387.264 30.1324 369.806 31.7207 357.188C33.9559 339.43 31.3481 317.605 24.551 297.181C22.3545 290.581 20.3063 283.138 19.9995 280.641C18.6786 269.892 25.0804 254.094 34.0107 246.065C44.0648 237.025 52.9607 234.239 69.5807 234.923C78.9674 235.309 82.5961 235.925 88.6704 238.162C107.542 245.113 122.04 257.828 131.697 275.897C133.377 279.041 135.161 281.866 135.661 282.175C136.161 282.484 145.48 269.343 156.37 252.973C180.074 217.342 187.015 209.483 200.67 202.818C218.548 194.091 234.551 194.744 249.631 204.813C267.852 216.981 274.726 240.797 266.823 264.384C263.063 275.608 256.019 289.636 237.802 322.181L223.808 347.181L230.489 347.816C255.669 350.208 274.478 365.429 281.613 389.188L283.717 396.194L289.944 396.377C308.183 396.912 328.173 409.69 336.975 426.44C341.908 435.829 343.775 443.36 344.025 454.882L344.235 464.583L348.243 467.486C358.833 475.158 367.634 488.879 371.817 504.239C374.928 515.666 374.944 539.881 371.847 554.329C365.746 582.805 352.471 608.76 329.983 636.181C308.532 662.337 277.68 687.281 253.655 697.893L247.103 700.787L245.444 708.812C239.953 735.364 220.068 754.821 191.395 761.695C184.913 763.249 179.989 763.639 168.169 763.538C159.919 763.467 152.045 763.215 150.67 762.977ZM183.17 735.17C192.785 733.142 201.165 728.782 207.549 722.486C212.334 717.766 217.634 709.151 217.661 706.048C217.672 704.691 214.416 703.713 209.822 703.695C198.75 703.65 192.241 691.284 198.322 681.847C200.697 678.163 205.644 676.681 215.573 676.681C235.294 676.681 248.648 671.552 269.377 656.018C279.471 648.454 299.154 629.367 307.367 619.181C327.909 593.7 341.135 567.58 345.053 544.755C348.963 521.973 345.374 503.571 335.075 493.588C333.219 491.789 331.517 490.512 331.293 490.749C330.843 491.225 304.445 531.371 292.343 549.982C286.121 559.55 283.976 562.073 281.008 563.313C270.949 567.516 260.199 557.642 263.417 547.156C263.973 545.343 275.556 526.68 289.155 505.684C303.863 482.976 314.693 465.213 315.882 461.844C322.322 443.607 307.796 423.681 288.061 423.681C278.026 423.681 282.694 417.531 222.413 510.181C213.941 523.203 212.129 524.848 206.252 524.848C200.438 524.848 195.773 522.204 193.197 517.451C191.546 514.405 191.391 513.18 192.247 509.971C192.811 507.86 206.675 485.294 223.057 459.824C239.439 434.353 253.479 411.991 254.256 410.129C256.076 405.774 256.071 396.576 254.245 392.209C248.491 378.437 226.781 369.705 213.017 375.627C210.205 376.836 206.768 379.031 205.38 380.503C203.351 382.656 164.446 444.618 148.358 471.319C142.774 480.587 136.794 483.431 129.393 480.339C124.112 478.132 121.459 473.446 121.946 467.181C122.291 462.745 124.291 459.021 139.668 434.181C178.233 371.881 208.669 320.135 228.594 282.993C240.753 260.325 241.966 257.098 242.078 247.112C242.16 239.79 241.888 238.587 239.133 234.124C231.933 222.456 218.819 221.481 206.459 231.694C204.419 233.38 199.59 238.963 195.729 244.101C183.208 260.76 35.6736 482.919 31.3561 491.616L27.1689 500.05L27.1915 512.116C27.2659 551.097 46.4379 593.864 76.1234 621.269C86.2045 630.576 88.3553 634.206 87.2571 640.06C86.912 641.9 85.1105 644.799 83.1032 646.745C79.8145 649.933 79.0762 650.188 72.8694 650.279C66.2946 650.376 66.1302 650.445 63.2969 654.279C52.4402 668.972 52.467 682.704 63.3759 694.779C68.4976 700.448 85.8184 711.753 100.054 718.717C128.872 732.817 162.637 739.5 183.17 735.17ZM79.758 369.181C119.768 309.169 116.843 315.409 112.304 299.737C109.351 289.54 104.675 281.892 96.9846 274.675C80.097 258.826 56.6283 256.659 48.9375 270.237C45.7602 275.846 46.0927 279.625 51.0969 294.778C57.4021 313.87 59.0294 325.782 58.3869 348.139C57.9571 363.097 57.3447 368.66 54.8047 380.681C52.0835 393.56 46.243 415.71 44.1258 421.181C43.7001 422.281 43.5929 422.956 43.8874 422.681C44.1822 422.406 60.3239 398.331 79.758 369.181ZM359.632 331.431C356.373 329.787 354.564 327.979 352.92 324.719C350.73 320.376 350.67 319.424 350.67 289.047V257.836L346.92 256.634C344.858 255.972 338.895 253.246 333.67 250.576C297.862 232.275 271.451 195.138 265.114 154.181C263.101 141.17 263.599 116.557 266.105 105.181C270.086 87.1092 279.494 66.4093 290.179 52.2124C309.892 26.0205 341.652 7.34135 375.159 2.23414C387.01 0.427686 530.809 -0.870698 543.67 0.712617C599.522 7.58839 643.969 49.0284 656.256 105.681C657.151 109.806 658.103 119.931 658.374 128.181C658.957 145.993 657.405 157.358 652.188 173.478C645.352 194.606 635.025 211.125 617.67 228.695C599.637 246.953 580.485 257.657 554.67 263.907C546.853 265.8 542.307 266 498.06 266.405L449.95 266.845L424.741 289.236C381.631 327.528 373.691 333.598 366.632 333.659C365.236 333.671 362.086 332.668 359.632 331.431ZM419.17 256.659C427.97 248.651 436.283 241.331 437.643 240.39C439.887 238.839 444.36 238.68 486.143 238.675C537.308 238.669 544.698 238.067 560.17 232.654C594.805 220.538 620.551 190.904 628.253 154.291C635.482 119.923 624.489 82.9849 599.796 58.6737C584.899 44.0073 567.079 34.7268 546.909 31.1305C537.191 29.3977 393.185 29.0456 379.816 30.7219C368.961 32.083 357.251 35.8191 346.469 41.3608C310.323 59.9396 288.862 97.3448 290.961 138.108C292.347 165.027 301.887 186.714 321.013 206.424C333.634 219.43 346.267 227.362 364.502 233.73C378.359 238.569 377.67 236.782 377.67 267.902V293.853L390.42 282.535C397.433 276.311 410.37 264.666 419.17 256.659ZM374.69 152.431C372.268 151.193 368.91 148.452 367.228 146.338C364.454 142.852 364.17 141.825 364.17 135.264C364.17 128.845 364.493 127.609 367.036 124.271C374.524 114.446 386.687 113.184 395.671 121.301C400.376 125.551 402.045 130.146 401.458 137.229C400.881 144.192 397.593 149.001 391.224 152.198C385.092 155.276 380.389 155.342 374.69 152.431ZM458.17 154.189C457.62 154.006 455.968 153.592 454.497 153.269C445.466 151.285 439.101 137.611 442.734 127.996C445.199 121.473 453.687 115.745 460.953 115.703C465.155 115.678 471.094 117.85 473.99 120.469C482.122 127.823 481.304 143.328 472.43 150.025C468.227 153.197 461.278 155.226 458.17 154.189ZM528.839 152.535C516.879 146.615 515.156 129.182 525.658 120.345C531.761 115.21 538.909 114.5 546.489 118.278C553.211 121.627 556.67 127.124 556.67 134.454C556.67 140.66 555.392 144.272 551.857 148.057C545.822 154.518 536.506 156.33 528.839 152.535ZM66.5821 207.318C65.1585 206.575 61.5504 203.99 58.5641 201.574C55.5777 199.158 43.8295 189.812 32.457 180.806C11.5109 164.218 8.67044 161.158 8.67044 155.181C8.67044 146.291 18.2498 139.067 26.449 141.773C28.2645 142.372 39.9695 150.93 52.4602 160.79C83.2751 185.115 85.3923 187.014 86.6084 191.419C88.9537 199.912 82.3864 208.687 73.6925 208.675C71.2054 208.671 68.0057 208.061 66.5821 207.318ZM157.975 187.784C154.025 185.303 151.748 181.932 151.029 177.505C150.556 174.589 152.649 169.779 166.043 143C179.387 116.32 182.09 111.585 185.006 109.783C189.348 107.099 194.993 107.099 199.334 109.782C202.996 112.045 206.696 118.185 206.63 121.891C206.562 125.754 176.538 184.732 173.495 186.982C169.555 189.895 161.959 190.287 157.975 187.784ZM107.975 183.725C106.217 182.653 104.047 180.66 103.153 179.295C102.259 177.93 99.0825 165.646 96.0942 151.997C93.1058 138.348 89.7069 123.221 88.5412 118.381C85.6833 106.514 86.2762 101.347 90.9913 97.0257C92.9261 95.2526 96.1057 93.5023 98.0569 93.1363C102.963 92.2158 109.951 95.6453 112.01 99.9844C112.849 101.753 116.512 116.47 120.149 132.69C129.768 175.581 129.3 172.47 126.944 177.797C123.687 185.158 114.853 187.919 107.975 183.725Z" fill="white"/>
</svg>
