<svg xmlns="http://www.w3.org/2000/svg" viewBox="0 0 100 100" fill="white">
    <path d="M50,10C27.9,10,10,27.9,10,50s17.9,40,40,40s40-17.9,40-40S72.1,10,50,10z M50,82.5c-17.9,0-32.5-14.6-32.5-32.5S32.1,17.5,50,17.5S82.5,32.1,82.5,50S67.9,82.5,50,82.5z"/>
    <path d="M50,25c-13.8,0-25,11.2-25,25s11.2,25,25,25s25-11.2,25-25S63.8,25,50,25z M50,67.5c-9.7,0-17.5-7.8-17.5-17.5S40.3,32.5,50,32.5S67.5,40.3,67.5,50S59.7,67.5,50,67.5z"/>
    <path d="M50,42.5c-4.1,0-7.5,3.4-7.5,7.5s3.4,7.5,7.5,7.5s7.5-3.4,7.5-7.5S54.1,42.5,50,42.5z"/>
</svg>
