<svg width="100" height="100" viewBox="0 0 100 100" fill="none" xmlns="http://www.w3.org/2000/svg">
<path d="M50 0C22.3858 0 0 22.3858 0 50C0 77.6142 22.3858 100 50 100C77.6142 100 100 77.6142 100 50C100 22.3858 77.6142 0 50 0ZM50 8C73.196 8 92 26.804 92 50C92 73.196 73.196 92 50 92C26.804 92 8 73.196 8 50C8 26.804 26.804 8 50 8Z" fill="white"/>
<path d="M50 16C31.2223 16 16 31.2223 16 50C16 68.7777 31.2223 84 50 84C68.7777 84 84 68.7777 84 50C84 31.2223 68.7777 16 50 16ZM50 24C64.3594 24 76 35.6406 76 50C76 64.3594 64.3594 76 50 76C35.6406 76 24 64.3594 24 50C24 35.6406 35.6406 24 50 24Z" fill="white"/>
</svg>
