<svg width="100" height="100" viewBox="0 0 100 100" fill="none" xmlns="http://www.w3.org/2000/svg">
<path d="M50 0C22.38 0 0 22.38 0 50C0 77.62 22.38 100 50 100C77.62 100 100 77.62 100 50C100 22.38 77.62 0 50 0ZM50 88C29.01 88 12 70.99 12 50C12 29.01 29.01 12 50 12C70.99 12 88 29.01 88 50C88 70.99 70.99 88 50 88Z" fill="black"/>
<path d="M50 18C32.33 18 18 32.33 18 50C18 67.67 32.33 82 50 82C67.67 82 82 67.67 82 50C82 32.33 67.67 18 50 18ZM50 70C38.95 70 30 61.05 30 50C30 38.95 38.95 30 50 30C61.05 30 70 38.95 70 50C70 61.05 61.05 70 50 70Z" fill="black"/>
</svg>
