<svg width="48" height="48" viewBox="0 0 48 48" fill="none" xmlns="http://www.w3.org/2000/svg">
<defs>
<linearGradient id="icon-gradient" x1="0" y1="0" x2="48" y2="48" gradientUnits="userSpaceOnUse">
<stop stop-color="#818cf8"/>
<stop offset="1" stop-color="#34d399"/>
</linearGradient>
</defs>
<path fill-rule="evenodd" clip-rule="evenodd" d="M24 48C37.2548 48 48 37.2548 48 24C48 10.7452 37.2548 0 24 0C10.7452 0 0 10.7452 0 24C0 37.2548 10.7452 48 24 48ZM24 44C34.9997 44 44 34.9997 44 24C44 13.0003 34.9997 4 24 4C13.0003 4 4 13.0003 4 24C4 34.9997 13.0003 44 24 44Z" fill="url(#icon-gradient)"/>
<path d="M14 18C14 15.7909 15.7909 14 18 14H30C32.2091 14 34 15.7909 34 18V30C34 32.2091 32.2091 34 30 34H18C15.7909 34 14 32.2091 14 30V18Z" fill="url(#icon-gradient)"/>
</svg>
